<svg xmlns="http://www.w3.org/2000/svg" viewBox="0 0 512 512" width="100%" height="100%">
  <defs>
    <linearGradient id="bg" x1="0%" y1="0%" x2="100%" y2="100%">
      <stop offset="0%" stop-color="#7c2d12" />
      <stop offset="50%" stop-color="#9a3412" />
      <stop offset="100%" stop-color="#c2410c" />
    </linearGradient>
    <linearGradient id="gold" x1="0%" y1="0%" x2="100%" y2="100%">
      <stop offset="0%" stop-color="#fef08a" />
      <stop offset="100%" stop-color="#f59e0b" />
    </linearGradient>
  </defs>
  <rect width="512" height="512" rx="112" fill="url(#bg)" />
  <circle cx="256" cy="256" r="210" fill="none" stroke="rgba(255,255,255,0.15)" stroke-width="8" stroke-dasharray="12 12" />
  <!-- Lotus Petals Base -->
  <g fill="url(#gold)" opacity="0.95">
    <path d="M256 120 C280 180 320 220 380 256 C320 292 280 332 256 392 C232 332 192 292 132 256 C192 220 232 180 256 120 Z" />
    <path d="M256 160 C270 205 305 240 350 256 C305 272 270 307 256 352 C242 307 207 272 162 256 C207 240 242 205 256 160 Z" opacity="0.8" />
  </g>
  <!-- Central Mala Bead -->
  <circle cx="256" cy="256" r="36" fill="#fff7ed" />
  <circle cx="256" cy="256" r="24" fill="#9a3412" />
</svg>
